<svg width="1036" height="1024" viewBox="0 0 1036 1024" fill="none" xmlns="http://www.w3.org/2000/svg">
<path fill-rule="evenodd" clip-rule="evenodd" d="M296.367 255.999L444.553 0.00177002L592.733 255.999H296.367ZM442.434 511.999L590.616 255.999L738.797 511.999H442.434ZM296.367 768L444.553 511.999L592.733 768H296.367ZM442.434 1024L590.616 767.999L738.797 1024H442.434Z" fill="#6E788A" fill-opacity="0.7"/>
<path fill-rule="evenodd" clip-rule="evenodd" d="M0.000488281 255.998L148.181 0.00152588L296.361 255.998H0.000488281ZM592.725 255.998L740.908 0.00152588L889.088 255.998H592.725ZM146.064 512.001L294.247 255.998L442.425 512.001H146.064Z" fill="#E0E2EC" fill-opacity="0.7"/>
<path fill-rule="evenodd" clip-rule="evenodd" d="M148.184 0.00280762H444.547L296.363 255.998L148.184 0.00280762ZM738.793 0.00280762H1035.16L886.974 255.998L738.793 0.00280762ZM0 255.998H296.363L148.185 512L0 255.998ZM590.609 255.998H886.972L738.79 512L590.609 255.998ZM148.184 512H444.547L296.363 767.999L148.184 512Z" fill="#9BB2C2" fill-opacity="0.7"/>
<path fill-rule="evenodd" clip-rule="evenodd" d="M444.547 0H740.911L592.727 255.999L444.547 0ZM294.251 256H590.614L442.43 511.999L294.251 256ZM444.547 511.999H740.911L592.727 768.002L444.547 511.999ZM294.251 768.001H590.614L442.43 1024L294.251 768.001Z" fill="#BCC5D6" fill-opacity="0.7"/>
</svg>
