<svg width="275" height="275" viewBox="0 0 275 275" fill="none" xmlns="http://www.w3.org/2000/svg">
<path d="M275 137.5C275 213.439 213.439 275 137.5 275C61.5608 275 0 213.439 0 137.5C0 61.5608 61.5608 0 137.5 0C213.439 0 275 61.5608 275 137.5ZM12.8567 137.5C12.8567 206.339 68.6614 262.143 137.5 262.143C206.339 262.143 262.143 206.339 262.143 137.5C262.143 68.6614 206.339 12.8567 137.5 12.8567C68.6614 12.8567 12.8567 68.6614 12.8567 137.5Z" fill="#69AA63"/>
<path d="M203.468 92.0972L118.226 177.339L79.4797 138.593" stroke="#69AA63" stroke-width="10" stroke-linecap="round" stroke-linejoin="round"/>
</svg>
